<?xml version="1.0" encoding="utf-8"?>
<svg viewBox="0 0 340 340" xmlns="http://www.w3.org/2000/svg">
  <ellipse id="head" style="fill: rgb(197, 140, 133); paint-order: stroke; stroke: rgb(0, 0, 0); stroke-width: 3px;" cx="170.349" cy="168.871" rx="118.194" ry="127.517"/>
  <path style="stroke: rgb(0, 0, 0); fill: none; fill-rule: nonzero; stroke-width: 3px;" d="M 174.587 138.448 C 147.217 164.662 147.266 195.29 175.96 184.921"/>
  <circle style="" cx="129.693" cy="114.457" r="5.422" transform="matrix(1.810501, 0, 0, 1.534513, -99.84848, -58.280666)"/>
  <circle style="" cx="129.693" cy="114.457" r="5.422" transform="matrix(1.810501, 0, 0, 1.534513, -25.327089, -57.470184)"/>
  <path style="stroke: rgb(0, 0, 0); stroke-width: 4px; fill: none;" d="M 168.222 237.787 C 169.311 248.132 221.358 258.157 221.547 213.745"/>
  <path style="stroke: rgb(0, 0, 0); stroke-width: 4px; fill: none;" d="M 168.222 237.787 C 167.327 242.302 212.11 226.591 221.547 213.745"/>
  <path style="fill: rgb(216, 216, 216); stroke: rgb(0, 0, 0); stroke-width: 4px;" d="M 115.021 89.969 L 148.151 90.517"/>
  <path style="fill: rgb(216, 216, 216); stroke: rgb(0, 0, 0); stroke-width: 4px;" d="M 195.704 89.769 L 227.695 90.019"/>
  <path style="stroke: rgb(0, 0, 0); fill: rgb(197, 140, 133); stroke-width: 2px;" d="M 64.241 108.136 C 48.009 98.486 37.48 150.994 53.712 160.644"/>
  <path style="stroke: rgb(0, 0, 0); fill: rgb(197, 140, 133); stroke-width: 2px;" d="M 294.91 159.693 C 278.678 169.343 268.149 116.835 284.381 107.185" transform="matrix(-1, 0, 0, -1, 571.178955, 268.05632)"/>
  <path stroke-width="0" d="M 162.707 17.869 C 164.877 17.935 168.368 20.217 169.935 21.696 C 171.154 22.848 171.127 25.491 172.06 25.522 C 173.163 25.559 174.014 21.665 176.312 20.42 C 179.469 18.711 186.528 17.147 190.768 17.869 C 194.655 18.532 197.785 23.272 200.972 23.822 C 203.677 24.288 206.404 21.582 208.625 22.121 C 210.777 22.643 213.038 25.349 214.152 26.798 C 214.96 27.848 214.492 29.457 215.428 29.774 C 216.721 30.212 220.125 27.095 222.23 27.223 C 224.217 27.344 226.423 28.616 227.758 30.199 C 229.203 31.915 228.799 36.469 230.309 37.427 C 231.639 38.272 234.034 36.259 235.836 36.577 C 237.723 36.91 240.07 38.303 241.363 39.553 C 242.483 40.635 242.093 42.467 243.489 43.38 C 245.426 44.645 251.601 43.995 253.268 45.08 C 254.28 45.739 253.597 47.383 254.543 47.631 C 256.053 48.028 260.723 44.073 263.047 44.23 C 264.948 44.358 266.526 45.157 267.724 47.206 C 269.664 50.526 269.645 62.992 270.7 65.488 C 271.115 66.472 271.433 65.928 271.975 66.764 C 273.138 68.558 276.179 73.603 277.077 77.818 C 278.083 82.539 277.99 89.185 277.077 93.975 C 276.257 98.283 274.796 103.535 272.401 105.454 C 270.421 107.041 266.601 106.732 264.747 106.305 C 263.371 105.988 262.523 105.316 261.771 104.179 C 260.819 102.739 261.303 99.141 260.071 97.801 C 258.935 96.567 256.105 97.365 254.969 96.101 C 253.704 94.695 254.877 91.019 253.268 89.298 C 251.349 87.245 244.715 87.269 243.064 85.471 C 241.879 84.181 243.261 81.858 242.213 80.795 C 240.989 79.552 236.967 80.619 235.411 79.094 C 233.701 77.417 234.787 72.299 232.86 70.59 C 230.879 68.834 225.566 70.831 223.506 68.89 C 221.287 66.799 222.749 59.293 220.53 57.835 C 218.47 56.482 213.473 60.027 211.176 59.536 C 209.422 59.161 208.444 57.869 207.35 56.56 C 206.135 55.108 206.066 51.78 204.373 51.033 C 202.447 50.182 198.021 53.181 195.87 52.733 C 194.165 52.378 193.036 50.516 192.043 49.757 C 191.33 49.211 190.994 48.276 190.343 48.482 C 189.289 48.814 188.582 53.765 186.516 54.434 C 184.002 55.248 179.234 51.063 175.462 51.033 C 171.586 51.001 165.826 53.867 163.557 54.434 C 162.427 54.716 162.195 54.361 161.431 54.859 C 160.28 55.609 159.556 58.914 157.605 59.536 C 155.14 60.322 148.732 58.485 146.975 57.41 C 146.002 56.814 146.539 55.496 145.7 55.284 C 144.41 54.959 140.857 57.822 138.897 57.835 C 137.267 57.847 136.143 55.498 134.645 56.135 C 132.293 57.135 129.539 66.195 126.992 68.039 C 125.29 69.272 123.72 69.262 121.89 68.89 C 119.671 68.438 116.381 64.175 114.662 64.638 C 113.096 65.06 113.127 69.319 111.686 70.59 C 110.364 71.758 107.874 72.289 106.584 72.291 C 105.668 72.293 105.194 71.089 104.458 71.441 C 103.256 72.015 102.302 77.022 100.632 78.243 C 99.215 79.28 97.008 79.301 95.53 79.094 C 94.222 78.911 93.288 76.839 92.128 77.393 C 90.215 78.308 88.62 87.054 86.176 89.298 C 84.316 91.005 81.45 89.853 79.798 91.424 C 77.886 93.243 77.215 98.796 75.972 100.352 C 75.252 101.254 74.292 100.681 73.846 101.628 C 73.087 103.238 74.622 108.405 73.846 110.982 C 73.166 113.239 71.618 115.47 70.02 116.509 C 68.581 117.444 66.661 117.807 64.918 117.359 C 62.852 116.828 59.818 115.567 58.54 112.682 C 56.611 108.33 57.785 96.827 58.54 90.573 C 59.162 85.423 59.891 79.696 61.941 77.393 C 63.437 75.713 65.977 77.341 67.894 75.692 C 70.735 73.249 73.269 63.373 75.972 61.237 C 77.669 59.896 79.987 60.337 81.074 60.386 C 81.708 60.415 81.877 61.135 82.35 60.812 C 83.393 60.098 84.301 53.607 86.176 51.883 C 87.742 50.443 90.691 50.537 92.128 50.182 C 93.073 49.949 93.451 50.399 94.254 49.757 C 95.763 48.55 97.272 42.661 99.781 40.829 C 102.159 39.093 106.457 40.47 108.71 38.703 C 111.049 36.868 110.936 30.701 113.387 29.774 C 115.953 28.804 122.724 32.521 124.016 33.601 C 124.568 34.061 124.159 35.02 124.441 34.876 C 125.098 34.543 126.565 26.589 128.693 24.672 C 130.467 23.074 133.427 22.598 135.496 22.971 C 137.53 23.338 139.904 25.654 141.023 26.798 C 141.774 27.566 141.724 28.992 142.298 28.924 C 143.124 28.826 143.945 24.961 145.7 23.822 C 147.715 22.514 152.386 22.485 154.203 22.121 C 155.247 21.912 155.751 22.001 156.329 21.696 C 156.867 21.412 156.929 20.889 157.605 20.42 C 158.676 19.678 160.827 17.813 162.707 17.869 Z" style="stroke-width: 2px; fill: rgb(44, 34, 43);"/>
<script src="./code.js"></script>
</svg>
