<?xml version="1.0" encoding="utf-8"?>
<svg viewBox="0 0 340 340" xmlns="http://www.w3.org/2000/svg">
  <ellipse style="fill: rgb(197, 140, 133); paint-order: stroke; stroke: rgb(0, 0, 0); stroke-width: 3px;" cx="170.349" cy="168.871" rx="118.194" ry="127.517"/>
  <path style="stroke: rgb(0, 0, 0); fill: none; fill-rule: nonzero; stroke-width: 3px;" d="M 166.373 142.086 C 135.451 194.571 206.271 203.034 180.65 143.205"/>
  <circle style="" cx="129.693" cy="114.457" r="5.422" transform="matrix(1.810501, 0, 0, 1.534513, -99.84848, -58.280666)"/>
  <circle style="" cx="129.693" cy="114.457" r="5.422" transform="matrix(1.810501, 0, 0, 1.534513, -25.327089, -57.470184)"/>
  <path style="stroke: rgb(0, 0, 0); stroke-width: 4px; fill: none;" d="M 168.222 237.787 C 169.311 248.132 221.358 258.157 221.547 213.745"/>
  <path style="stroke: rgb(0, 0, 0); stroke-width: 4px; fill: none;" d="M 168.222 237.787 C 167.327 242.302 212.11 226.591 221.547 213.745"/>
  <path style="fill: rgb(216, 216, 216); stroke: rgb(0, 0, 0); stroke-width: 4px;" d="M 115.021 89.969 L 148.151 90.517"/>
  <path style="fill: rgb(216, 216, 216); stroke: rgb(0, 0, 0); stroke-width: 4px;" d="M 195.704 89.769 L 227.695 90.019"/>
  <path style="stroke: rgb(0, 0, 0); fill: rgb(197, 140, 133); stroke-width: 2px;" d="M 64.241 108.136 C 48.009 98.486 37.48 150.994 53.712 160.644"/>
  <path style="stroke: rgb(0, 0, 0); fill: rgb(197, 140, 133); stroke-width: 2px;" d="M 294.91 159.693 C 278.678 169.343 268.149 116.835 284.381 107.185" transform="matrix(-1, 0, 0, -1, 571.178955, 268.05632)"/>
  <path fill="rgb(255,0,0)" stroke-width="0" d="M 260.601 8.812 C 267.424 8.569 279.43 9.516 287.811 12.213 C 295.977 14.84 305.272 19.41 310.345 24.543 C 314.658 28.906 316.083 33.293 317.999 39.849 C 320.502 48.419 320.307 65.687 322.25 73.012 C 323.463 77.581 325.287 76.715 326.502 82.366 C 329.193 94.882 333.724 145.107 331.604 157.196 C 330.66 162.578 327.833 161.821 326.502 165.699 C 324.659 171.069 322.586 183.246 323.101 187.808 C 323.398 190.45 325.031 189.872 325.652 192.91 C 326.969 199.358 327.824 222.148 326.502 230.325 C 325.69 235.346 322.563 237.381 322.25 240.529 C 321.978 243.273 323.797 245.539 323.951 248.182 C 324.11 250.918 322.918 254.049 323.101 256.686 C 323.269 259.122 324.641 260.208 324.801 263.488 C 325.067 268.926 321.449 280.875 322.25 288.148 C 322.955 294.55 327.254 299.698 328.203 305.155 C 329.071 310.152 329.136 316.52 328.203 319.611 C 327.6 321.607 326.73 322.634 325.226 323.437 C 323.417 324.404 319.427 324.715 317.573 324.288 C 316.197 323.971 315.584 324.078 314.597 322.162 C 312.01 317.139 307.642 293.178 306.944 282.196 C 306.406 273.715 308.598 268.493 308.645 260.937 C 308.695 252.707 306.05 241.215 306.944 234.577 C 307.593 229.761 310.608 229.09 311.196 223.522 C 312.202 214.003 305.614 190.828 306.944 178.454 C 308.011 168.53 314.214 160.695 315.448 153.795 C 316.398 148.476 315.662 146.379 315.448 140.189 C 315.114 130.575 314.889 110.414 312.897 99.373 C 311.333 90.707 307.765 86.179 306.094 78.114 C 304.162 68.792 305.648 51.509 302.692 46.227 C 301.013 43.225 297.292 43.878 295.89 42.4 C 294.797 41.248 295.182 39.658 294.189 38.573 C 293.049 37.329 290.31 36.826 289.087 35.597 C 288.002 34.508 288.484 32.217 286.961 31.771 C 284.519 31.055 278.019 35.312 273.356 36.022 C 268.666 36.737 261.037 36.287 258.9 36.022 C 258.074 35.92 258.212 35.232 257.624 35.597 C 256.012 36.599 248.982 46.082 249.121 50.053 C 249.235 53.319 252.709 55.344 255.499 58.131 C 258.903 61.533 266.757 65.913 268.679 68.761 C 269.793 70.412 269.773 71.516 269.529 73.012 C 269.246 74.748 267.412 77.723 266.553 78.539 C 266.089 78.98 265.231 78.688 265.277 78.965 C 265.355 79.431 268.599 80.617 269.529 81.516 C 270.234 82.197 270.184 82.98 270.805 83.642 C 271.53 84.414 273.034 84.521 273.781 85.767 C 274.836 87.528 275.577 91.324 275.482 94.271 C 275.38 97.404 274.776 102.18 272.931 104.05 C 271.299 105.703 267.861 106.149 265.703 105.75 C 263.628 105.367 261.385 103.345 260.175 101.924 C 259.175 100.748 259.508 99.265 258.475 98.097 C 257.2 96.657 253.906 95.555 252.522 94.271 C 251.46 93.284 251.023 92.043 250.397 91.295 C 249.925 90.731 249.726 90.784 249.121 90.019 C 247.886 88.458 245.467 83.254 243.169 81.09 C 241.145 79.185 238.597 79.363 236.366 77.264 C 233.47 74.54 230.025 67.058 227.862 64.934 C 226.664 63.757 226.011 63.914 224.886 63.233 C 223.523 62.408 221.223 61.05 220.209 60.257 C 219.562 59.751 219.665 59.483 218.934 58.982 C 217.634 58.09 215.978 56.478 212.131 55.58 C 204.592 53.822 184.532 52.264 171.315 53.029 C 158.477 53.773 144.181 56.62 133.9 59.832 C 125.49 62.46 117.005 66.728 113.067 69.611 C 110.76 71.299 111.261 72.756 109.24 74.288 C 106.36 76.47 98.319 78.373 96.06 80.665 C 94.593 82.154 95.383 84.278 94.359 85.342 C 93.369 86.372 91.443 85.936 90.107 87.043 C 88.417 88.445 87.571 91.721 85.431 93.846 C 82.951 96.305 77.305 99.138 75.652 100.648 C 74.822 101.406 74.945 101.617 74.376 102.349 C 73.547 103.416 72.614 105.728 70.975 106.601 C 69.091 107.603 65.176 107.878 63.322 107.451 C 61.945 107.134 61.094 106.531 60.345 105.325 C 59.33 103.689 58.386 99.445 58.645 97.672 C 58.822 96.454 60.223 95.995 60.345 95.121 C 60.462 94.292 59.183 93.887 59.495 92.57 C 60.164 89.75 67.396 79.895 69.699 77.689 C 70.801 76.634 71.36 77.149 72.25 76.414 C 73.453 75.42 74.045 73.399 76.077 71.737 C 79.09 69.271 87.141 66.755 90.107 63.659 C 92.446 61.217 91.174 58.035 93.934 55.58 C 98.032 51.937 112.037 46.795 116.043 46.227 C 117.898 45.963 118.394 47.465 119.444 47.077 C 120.697 46.614 120.417 44.147 122.845 42.825 C 127.711 40.176 148.785 38.786 153.033 36.022 C 155.04 34.716 153.197 32.951 155.158 31.771 C 159.12 29.387 174.45 26.931 182.369 27.519 C 189.17 28.024 195.539 33.672 200.226 33.471 C 203.793 33.319 205.783 29.383 208.73 29.22 C 211.731 29.053 213.85 33.437 218.084 32.621 C 225.316 31.227 241.85 14.919 249.546 11.363 C 254.293 9.169 255.807 8.982 260.601 8.812 Z" style="fill: rgb(166, 209, 48); stroke-width: 2px;"/>
</svg>